<?xml version="1.0" standalone="no"?>
<!DOCTYPE svg PUBLIC "-//W3C//DTD SVG 20010904//EN"
 "http://www.w3.org/TR/2001/REC-SVG-20010904/DTD/svg10.dtd">
<svg version="1.0" xmlns="http://www.w3.org/2000/svg"
 width="1024.000000pt" height="1024.000000pt" viewBox="0 0 1024.000000 1024.000000"
 preserveAspectRatio="xMidYMid meet">
<metadata>
Created by potrace 1.14, written by Peter Selinger 2001-2017
</metadata>
<g transform="translate(0.000000,1024.000000) scale(0.100000,-0.100000)"
fill="#000000" stroke="none">
<path d="M4908 9975 c-2 -1 -50 -5 -108 -9 -58 -3 -123 -8 -145 -11 -80 -8
-151 -16 -175 -20 -14 -2 -47 -6 -75 -10 -27 -3 -57 -7 -65 -9 -8 -3 -31 -7
-50 -10 -19 -3 -60 -10 -90 -16 -30 -6 -66 -13 -80 -16 -51 -9 -125 -27 -135
-32 -5 -3 -16 -7 -25 -7 -33 -3 -120 -28 -125 -36 -3 -4 -12 -6 -20 -2 -9 3
-21 0 -29 -6 -7 -6 -16 -8 -19 -4 -4 3 -7 2 -7 -4 0 -6 -8 -10 -17 -9 -23 1
-256 -76 -264 -87 -3 -5 -10 -8 -15 -7 -16 3 -114 -34 -114 -43 0 -4 -4 -6 -9
-3 -5 3 -22 -1 -37 -9 -16 -8 -32 -15 -35 -15 -4 0 -33 -12 -65 -27 -33 -15
-65 -28 -73 -29 -8 -2 -18 -9 -22 -16 -5 -7 -9 -10 -9 -6 0 9 -304 -142 -308
-154 -2 -4 -10 -8 -18 -8 -8 0 -14 -4 -14 -8 0 -5 -6 -9 -13 -9 -14 0 -99 -51
-108 -65 -3 -5 -9 -9 -13 -9 -19 3 -27 0 -22 -7 3 -5 0 -9 -7 -9 -19 0 -87
-44 -87 -56 0 -6 -3 -7 -6 -4 -7 7 -226 -140 -232 -155 -2 -4 -10 -8 -18 -8
-9 0 -12 -4 -9 -10 3 -5 0 -10 -8 -10 -12 0 -45 -24 -178 -131 -124 -100 -235
-201 -231 -212 1 -5 -1 -6 -6 -3 -10 6 -265 -247 -257 -257 3 -4 2 -5 -1 -3
-3 3 -16 -6 -28 -19 -11 -12 -38 -41 -59 -64 -21 -23 -36 -41 -34 -41 3 0 -12
-18 -33 -40 -21 -22 -77 -91 -125 -153 -47 -61 -93 -120 -101 -129 -7 -10 -12
-18 -9 -18 5 0 -18 -29 -42 -55 -7 -8 -13 -16 -13 -18 0 -3 -24 -41 -53 -84
-61 -93 -62 -95 -124 -198 -26 -44 -46 -82 -45 -84 2 -2 0 -7 -6 -10 -5 -3
-29 -44 -53 -91 -24 -47 -47 -86 -51 -88 -5 -2 -8 -11 -8 -20 0 -9 -9 -28 -20
-42 -11 -14 -20 -30 -20 -36 0 -6 -11 -32 -25 -58 -13 -25 -25 -48 -25 -51 0
-3 -12 -31 -26 -62 -35 -79 -47 -106 -49 -118 -2 -5 -16 -44 -33 -85 -29 -74
-100 -278 -107 -309 -3 -9 -11 -41 -20 -71 -37 -126 -84 -323 -79 -331 3 -5 1
-9 -3 -9 -5 0 -9 -9 -10 -20 -1 -11 -9 -55 -17 -98 -9 -42 -18 -90 -20 -107
-12 -85 -16 -113 -21 -150 -2 -22 -7 -56 -10 -75 -35 -231 -40 -710 -10 -1030
13 -147 18 -186 21 -192 3 -4 7 -27 9 -50 2 -24 6 -52 8 -63 3 -11 8 -45 12
-75 4 -30 10 -59 13 -65 3 -5 7 -21 8 -35 4 -37 14 -93 21 -110 3 -8 7 -22 8
-30 11 -67 68 -275 77 -278 4 -2 6 -7 3 -12 -5 -8 24 -111 35 -120 3 -3 7 -14
8 -25 8 -45 67 -208 93 -257 5 -10 9 -22 9 -27 0 -5 10 -31 22 -58 12 -26 22
-50 23 -53 37 -110 297 -602 328 -622 7 -4 8 -8 2 -8 -5 0 -3 -6 5 -13 8 -7
16 -18 18 -26 4 -17 63 -105 74 -109 4 -2 8 -8 8 -13 0 -18 47 -79 54 -71 4 4
6 3 5 -3 -5 -15 21 -57 50 -84 14 -13 19 -20 11 -16 -8 3 -4 -4 10 -17 14 -13
27 -27 28 -33 2 -5 11 -19 20 -30 10 -11 28 -36 41 -55 14 -19 32 -42 40 -51
9 -9 34 -38 56 -65 39 -48 115 -134 145 -164 8 -8 41 -43 72 -76 31 -34 60
-59 63 -56 3 3 5 1 5 -5 0 -16 130 -138 144 -135 6 2 8 1 4 -3 -8 -9 16 -35
32 -35 6 0 8 -5 5 -10 -3 -6 -3 -10 2 -10 4 0 26 -16 48 -36 82 -73 235 -195
235 -187 0 4 5 1 10 -8 5 -9 35 -34 67 -55 31 -21 65 -47 75 -57 10 -9 22 -17
26 -17 5 0 17 -8 28 -18 28 -25 104 -73 104 -66 0 4 8 -3 19 -14 10 -12 22
-22 26 -22 4 0 19 -8 33 -19 95 -67 465 -265 476 -254 3 3 6 1 6 -5 0 -10 25
-23 44 -21 5 0 12 -3 15 -8 13 -21 441 -190 441 -175 0 4 4 1 8 -5 4 -7 17
-14 27 -16 11 -2 29 -7 40 -11 47 -18 199 -65 230 -72 6 -1 37 -9 70 -17 33
-9 71 -18 85 -21 14 -3 43 -10 65 -15 70 -16 232 -47 295 -57 19 -3 60 -9 90
-14 30 -5 84 -12 120 -16 36 -3 79 -8 95 -10 205 -24 772 -23 950 2 17 2 59 7
95 10 70 7 102 11 110 14 3 1 8 2 12 1 4 0 31 4 60 9 29 6 69 13 88 16 19 3
42 7 50 9 8 2 31 7 50 10 66 11 255 55 325 76 39 11 86 24 105 28 38 9 273 87
305 101 11 5 74 30 140 56 66 26 153 62 193 81 39 18 77 33 82 33 6 0 10 4 10
9 0 4 20 16 45 25 25 10 45 22 45 27 0 6 4 8 9 5 9 -6 242 120 253 138 5 6 8
7 8 1 0 -5 7 -2 14 8 8 10 18 18 23 17 12 -2 143 82 143 92 0 5 4 7 9 3 5 -3
15 1 23 7 7 7 40 31 73 53 33 22 62 42 65 45 3 3 28 20 55 39 28 19 60 45 73
58 12 13 22 21 22 18 0 -5 129 95 166 130 6 5 38 33 70 60 135 116 361 342
356 357 -1 5 1 7 6 4 5 -3 16 4 25 15 9 10 15 19 13 19 -2 0 15 19 38 43 23
23 71 78 107 122 35 43 72 88 81 100 60 71 116 150 112 157 -3 4 -1 8 4 8 5 0
27 26 48 57 22 32 45 64 52 71 7 8 10 17 7 22 -3 5 -1 10 5 12 13 4 120 170
120 186 0 6 5 12 10 12 6 0 10 6 10 14 0 8 3 16 8 18 7 3 31 45 65 113 10 22
27 48 36 59 9 10 15 20 14 22 -1 2 28 66 64 141 61 127 151 335 156 358 2 6 6
16 10 23 5 6 5 12 1 12 -3 0 -2 6 4 12 10 13 83 220 87 248 1 8 7 28 14 43 6
16 9 32 6 37 -3 5 -1 10 4 12 8 3 90 322 105 408 3 19 8 46 11 60 10 49 16 87
30 180 4 25 8 57 11 71 2 14 6 50 9 80 3 30 8 70 10 89 25 190 25 831 -1 963
-2 12 -6 47 -9 77 -3 30 -7 66 -10 80 -2 14 -7 45 -10 70 -7 50 -12 82 -20
120 -3 14 -8 45 -11 70 -3 25 -10 50 -15 56 -5 6 -6 14 -3 17 4 3 3 14 -1 24
-4 10 -8 27 -9 38 -2 27 -60 249 -66 255 -3 3 -6 14 -7 25 -2 27 -44 169 -52
175 -3 3 -8 16 -10 30 -1 14 -6 27 -10 30 -3 3 -6 10 -6 15 -1 23 -39 125 -47
125 -5 0 -7 4 -4 9 3 5 -15 57 -40 117 -25 60 -53 127 -62 149 -25 63 -163
337 -184 368 -11 15 -16 27 -12 27 4 0 1 8 -7 18 -8 9 -23 33 -33 52 -11 19
-22 37 -25 40 -3 3 -17 25 -30 50 -13 25 -31 51 -39 58 -9 6 -13 12 -9 12 4 0
-5 18 -19 40 -15 22 -31 40 -37 40 -6 0 -7 3 -4 6 6 6 -95 160 -114 174 -3 3
-11 14 -17 26 -6 12 -26 39 -44 61 -18 22 -42 52 -53 68 -11 15 -32 40 -46 55
-14 15 -29 35 -32 44 -4 10 -12 14 -18 10 -8 -4 -9 -3 -5 4 4 6 -2 17 -14 24
-11 7 -20 16 -20 21 0 24 -363 395 -382 389 -5 -1 -7 1 -4 6 2 4 -9 18 -24 31
-16 12 -47 39 -68 59 -60 58 -152 134 -152 126 0 -3 -9 5 -21 20 -11 14 -25
26 -30 26 -5 0 -20 9 -32 21 -33 30 -138 109 -146 109 -4 0 -16 8 -27 18 -28
26 -171 122 -183 122 -5 0 -11 4 -13 8 -3 7 -132 88 -168 105 -8 4 -42 23 -75
43 -56 32 -289 149 -415 207 -103 47 -233 97 -241 91 -5 -3 -9 -1 -9 4 0 8
-61 31 -83 31 -4 1 -20 7 -37 16 -16 8 -37 17 -47 18 -10 2 -25 7 -33 10 -20
8 -205 63 -254 76 -22 6 -43 8 -48 5 -4 -3 -8 -1 -8 4 0 5 -6 9 -12 9 -7 1
-47 9 -88 19 -41 9 -86 18 -100 20 -14 1 -25 3 -25 4 0 5 -110 26 -189 36 -17
3 -76 11 -131 19 -55 7 -131 17 -170 20 -38 3 -92 8 -120 11 -51 5 -562 13
-567 9z"/>
</g>
</svg>
