<?xml version="1.0" standalone="no"?>
<!DOCTYPE svg PUBLIC "-//W3C//DTD SVG 20010904//EN"
 "http://www.w3.org/TR/2001/REC-SVG-20010904/DTD/svg10.dtd">
<svg version="1.0" xmlns="http://www.w3.org/2000/svg"
 width="80.000000pt" height="80.000000pt" viewBox="0 0 80.000000 80.000000"
 preserveAspectRatio="xMidYMid meet">
<metadata>
Created by potrace 1.14, written by Peter Selinger 2001-2017
</metadata>
<g transform="translate(0.000000,80.000000) scale(0.100000,-0.100000)"
fill="#000000" stroke="none">
<path d="M164 788 c-5 -7 -2 -9 7 -4 8 4 6 1 -5 -8 -10 -8 -15 -19 -11 -25 3
-6 1 -11 -6 -11 -7 0 -9 -3 -6 -7 4 -3 1 -13 -6 -21 -10 -13 -9 -15 3 -8 8 4
7 1 -4 -8 -10 -8 -15 -19 -11 -25 3 -6 1 -11 -4 -11 -6 0 -10 -6 -9 -12 2 -7
-1 -12 -7 -11 -5 1 -11 -13 -11 -30 -1 -17 -6 -33 -13 -35 -6 -2 -9 -8 -5 -13
3 -5 0 -9 -7 -9 -10 0 -10 -3 -1 -12 9 -9 7 -15 -6 -25 -10 -9 -11 -12 -2 -7
12 7 13 5 3 -8 -7 -8 -10 -18 -6 -21 3 -4 1 -7 -5 -7 -8 0 -9 -7 -2 -25 8 -20
7 -23 -7 -18 -10 4 -14 2 -9 -5 3 -6 1 -14 -5 -18 -8 -4 -7 -9 2 -15 8 -5 9
-9 3 -9 -6 0 -10 -21 -9 -49 1 -40 -2 -48 -15 -43 -13 5 -13 4 0 -13 11 -14
12 -17 1 -11 -9 6 -12 5 -9 -5 3 -8 11 -13 17 -11 7 1 10 -2 6 -8 -3 -6 -11
-8 -16 -5 -10 7 -13 -133 -3 -159 3 -9 11 -13 17 -9 6 3 7 1 3 -6 -10 -16 12
-41 30 -34 9 3 14 0 12 -8 -2 -11 27 -15 150 -17 112 -2 152 1 147 9 -5 8 -1
7 15 -1 12 -7 20 -8 16 -2 -3 5 0 12 7 14 16 7 38 -2 32 -12 -7 -12 189 -12
234 0 21 5 42 18 45 27 4 9 9 13 13 10 7 -7 43 36 43 51 0 6 5 14 12 18 7 5 8
3 3 -6 -5 -9 -4 -11 4 -6 9 6 9 11 -1 24 -8 10 -9 13 -1 9 9 -5 11 9 9 55 -4
76 -8 94 -26 111 -10 10 -11 9 -5 -2 5 -9 4 -12 -3 -7 -6 4 -8 14 -5 23 5 12
3 14 -7 8 -10 -6 -12 -4 -7 9 4 9 3 15 -2 11 -5 -3 -16 2 -24 10 -12 11 -17
12 -20 2 -3 -7 -6 -5 -6 5 -1 11 -8 16 -20 13 -11 -2 -22 3 -25 12 -5 11 -10
12 -19 4 -10 -8 -17 -7 -27 2 -10 10 -12 8 -6 -7 5 -15 4 -17 -7 -8 -8 7 -17
9 -21 5 -3 -4 -22 -7 -40 -8 -18 0 -40 -6 -48 -13 -8 -6 -18 -9 -21 -5 -4 3
-7 1 -7 -6 0 -9 -6 -11 -17 -6 -10 4 -25 8 -33 10 -8 1 -14 7 -13 12 1 5 -7 9
-18 9 -10 0 -19 -4 -19 -9 0 -5 -7 -4 -15 3 -12 10 -15 10 -15 -1 0 -12 -2
-12 -9 -1 -7 11 -9 11 -14 -2 -3 -8 -15 -14 -26 -13 -11 0 -17 5 -15 9 3 4 2
8 -3 8 -4 0 -7 15 -6 32 1 18 2 56 2 83 1 35 4 46 11 35 7 -12 9 -10 7 7 0 12
-5 19 -10 16 -5 -3 -4 3 2 14 7 14 7 23 -1 31 -8 8 -5 9 12 5 19 -5 22 -3 17
10 -5 13 -3 15 11 8 43 -24 80 -29 100 -15 11 7 22 10 26 7 3 -3 6 -2 6 3 0 6
15 15 33 22 29 10 34 17 34 46 0 26 -6 38 -24 47 -19 10 -21 15 -11 28 7 9 9
13 4 9 -4 -4 -19 4 -33 18 -23 23 -30 24 -143 24 -79 0 -121 -4 -126 -12z"/>
</g>
</svg>
