<?xml version="1.0" standalone="no"?>
<!DOCTYPE svg PUBLIC "-//W3C//DTD SVG 20010904//EN"
 "http://www.w3.org/TR/2001/REC-SVG-20010904/DTD/svg10.dtd">
<svg version="1.0" xmlns="http://www.w3.org/2000/svg"
 width="1024.000000pt" height="1024.000000pt" viewBox="0 0 1024.000000 1024.000000"
 preserveAspectRatio="xMidYMid meet">
<metadata>
Created by potrace 1.14, written by Peter Selinger 2001-2017
</metadata>
<g transform="translate(0.000000,1024.000000) scale(0.100000,-0.100000)"
fill="#000000" stroke="none">
<path d="M0 5120 l0 -5120 5120 0 5120 0 0 5120 0 5120 -5120 0 -5120 0 0
-5120z m3135 3035 c271 -32 528 -97 749 -189 213 -90 320 -174 351 -277 47
-159 41 -662 -11 -784 -22 -54 -60 -80 -112 -79 -39 1 -89 23 -292 126 -189
96 -281 136 -403 176 -246 82 -490 114 -697 93 -145 -15 -219 -35 -330 -88
-168 -81 -274 -211 -316 -389 -19 -85 -15 -264 9 -339 37 -115 142 -246 281
-350 122 -91 290 -179 639 -334 498 -222 754 -357 947 -499 119 -88 327 -303
398 -411 119 -181 204 -389 237 -581 9 -52 19 -170 22 -261 14 -400 -69 -738
-257 -1044 -156 -254 -418 -493 -704 -639 -690 -354 -1685 -365 -2462 -28
-164 71 -325 176 -375 245 -45 62 -68 152 -80 319 -9 109 -9 191 -1 306 17
234 49 318 132 343 58 17 108 0 262 -93 326 -196 643 -317 950 -365 143 -22
478 -24 588 -4 270 49 474 169 584 343 127 201 142 503 33 688 -46 79 -197
226 -301 294 -125 83 -290 166 -591 301 -470 210 -717 342 -905 485 -115 86
-292 266 -367 373 -173 246 -261 503 -283 826 -36 539 126 992 474 1329 165
159 355 278 590 369 155 60 422 121 624 142 135 15 478 12 617 -4z m4490 -219
c538 -66 917 -220 1175 -476 248 -248 370 -571 370 -985 0 -373 -108 -665
-333 -902 -119 -125 -296 -244 -452 -304 -29 -11 -26 -12 78 -40 285 -75 489
-191 673 -381 143 -148 247 -319 312 -515 57 -169 67 -243 67 -503 0 -205 -3
-249 -23 -347 -40 -201 -121 -402 -222 -558 -299 -459 -851 -741 -1615 -827
-92 -10 -353 -13 -1135 -13 l-1015 0 -55 28 c-72 37 -123 88 -152 151 l-23 51
-3 2685 c-2 2965 -7 2742 61 2832 37 49 121 103 181 117 25 6 421 9 1006 7
841 -2 983 -5 1105 -20z"/>
<path d="M6430 6306 l0 -766 424 0 c334 0 442 3 511 15 244 43 429 176 529
380 68 138 81 202 81 390 0 136 -4 172 -23 240 -63 217 -194 356 -412 436
-154 56 -206 61 -677 66 l-433 5 0 -766z"/>
<path d="M6430 3831 l0 -841 518 0 c572 0 640 5 805 60 262 88 440 273 509
529 27 101 29 319 4 435 -80 366 -343 574 -801 636 -55 8 -274 14 -562 17
l-473 5 0 -841z"/>
</g>
</svg>
