<?xml version="1.0" standalone="no"?>
<!DOCTYPE svg PUBLIC "-//W3C//DTD SVG 20010904//EN"
 "http://www.w3.org/TR/2001/REC-SVG-20010904/DTD/svg10.dtd">
<svg version="1.0" xmlns="http://www.w3.org/2000/svg"
 width="1024.000000pt" height="1024.000000pt" viewBox="0 0 1024.000000 1024.000000"
 preserveAspectRatio="xMidYMid meet">
<metadata>
Created by potrace 1.14, written by Peter Selinger 2001-2017
</metadata>
<g transform="translate(0.000000,1024.000000) scale(0.100000,-0.100000)"
fill="#000000" stroke="none">
<path d="M0 5120 l0 -5120 5120 0 5120 0 0 5120 0 5120 -5120 0 -5120 0 0
-5120z m1316 2765 c42 -38 98 -88 123 -111 25 -23 75 -61 110 -85 35 -24 84
-59 110 -76 25 -18 51 -33 57 -33 6 0 17 -7 24 -15 7 -8 45 -33 86 -56 40 -22
76 -44 79 -50 4 -5 13 -9 22 -9 8 0 28 -11 45 -25 16 -14 40 -25 52 -25 13 0
31 -9 41 -20 10 -11 28 -20 39 -20 12 0 48 -14 81 -30 33 -16 66 -30 73 -30 7
0 23 -6 35 -14 12 -8 41 -17 64 -21 24 -4 62 -16 85 -27 23 -11 60 -23 83 -26
22 -2 57 -13 77 -23 21 -11 55 -19 76 -19 22 0 74 -11 116 -24 42 -14 94 -25
114 -24 20 0 73 -9 117 -20 44 -11 114 -23 155 -26 41 -3 115 -14 164 -25 49
-11 101 -18 115 -15 14 3 105 -4 201 -16 96 -12 274 -26 395 -32 121 -5 245
-12 275 -14 340 -25 693 -35 1565 -44 545 -5 1105 -14 1245 -20 140 -5 327
-11 415 -14 88 -2 205 -12 260 -21 55 -9 147 -20 205 -25 58 -4 130 -16 160
-25 30 -10 75 -18 100 -20 25 -1 66 -11 92 -23 26 -12 56 -22 67 -22 17 0 94
-36 185 -87 64 -36 136 -154 136 -223 0 -90 -81 -234 -238 -419 -88 -106 -413
-424 -583 -571 -29 -25 -60 -52 -69 -60 -82 -76 -196 -176 -246 -216 -164
-132 -337 -276 -414 -344 -47 -41 -110 -95 -140 -120 -45 -37 -145 -124 -255
-223 -37 -34 -254 -225 -298 -263 -10 -9 -22 -13 -25 -9 -4 4 0 12 9 18 8 7
18 20 22 31 7 19 22 39 98 134 25 31 48 62 50 69 7 20 322 377 399 451 183
177 239 233 269 268 18 21 59 66 90 99 85 91 161 181 161 190 0 5 8 18 19 29
41 46 113 160 153 242 38 79 42 95 42 159 0 52 -6 82 -23 118 -27 54 -105 129
-169 159 -23 11 -45 24 -48 29 -3 5 -14 9 -26 9 -11 0 -32 8 -46 19 -15 10
-47 21 -72 25 -24 4 -64 16 -88 26 -25 11 -64 20 -88 20 -25 0 -101 11 -170
25 -80 16 -162 25 -227 26 -56 0 -142 5 -192 10 -232 23 -446 28 -1185 29
-759 0 -1019 7 -1230 31 -52 6 -160 14 -240 19 -80 5 -194 18 -255 29 -60 11
-119 18 -130 15 -11 -3 -61 4 -110 16 -50 12 -124 25 -165 30 -41 5 -102 18
-134 29 -33 12 -76 21 -97 21 -20 0 -59 9 -86 21 -26 11 -67 22 -90 25 -23 2
-57 13 -75 24 -18 11 -46 20 -63 20 -16 0 -57 11 -90 25 -33 13 -68 25 -78 25
-11 0 -30 9 -44 20 -14 11 -40 20 -57 20 -17 0 -49 12 -71 25 -22 14 -48 25
-58 25 -11 0 -30 9 -44 20 -14 11 -36 20 -49 20 -12 0 -36 11 -52 25 -17 14
-38 25 -47 25 -9 0 -28 9 -42 20 -14 11 -34 20 -43 20 -10 0 -24 7 -31 17 -8
9 -30 23 -49 31 -19 7 -67 39 -108 71 -40 31 -83 61 -95 68 -26 14 -245 237
-299 303 -124 152 -165 209 -242 334 -35 55 -86 159 -86 173 0 20 14 10 106
-72z m1914 -4211 c121 -34 136 -40 163 -59 72 -51 116 -92 159 -149 71 -93
100 -183 101 -321 2 -170 -63 -309 -193 -412 -58 -46 -99 -73 -110 -73 -6 0
-32 -10 -58 -22 -41 -20 -63 -23 -177 -23 -117 0 -133 2 -166 23 -20 12 -44
22 -54 22 -9 0 -30 11 -47 25 -16 14 -35 25 -42 25 -17 0 -106 87 -138 135
-149 225 -103 550 100 710 103 81 110 85 132 85 11 0 35 7 53 17 17 9 43 19
57 24 44 13 164 10 220 -7z m2528 -9 c30 -14 63 -25 74 -25 11 0 33 -11 50
-25 16 -14 35 -25 41 -25 32 -1 135 -120 173 -200 47 -99 54 -128 54 -238 0
-168 -43 -277 -150 -384 -38 -37 -74 -68 -80 -68 -6 0 -26 -11 -44 -25 -18
-14 -42 -25 -52 -25 -11 0 -37 -9 -59 -20 -63 -32 -217 -28 -321 8 -113 39
-195 100 -267 194 -53 71 -76 127 -92 228 -12 73 -12 97 0 170 23 136 42 177
128 274 71 81 127 119 220 150 100 33 102 34 192 35 66 1 90 -4 133 -24z"/>
</g>
</svg>
